::::::::::: ::::    ::::      :::      :::::::: ::::::::::: ::::    ::: :::::::::: 
                      :+:     +:+:+: :+:+:+   :+: :+:   :+:    :+:    :+:     :+:+:   :+: :+:        
                      +:+     +:+ +:+:+ +:+  +:+   +:+  +:+           +:+     :+:+:+  +:+ +:+        
                      +#+     +#+  +:+  +#+ +#++:++#++: :#:           +#+     +#+ +:+ +#+ +#++:++#   
                      +#+     +#+       +#+ +#+     +#+ +#+   +#+#    +#+     +#+  +#+#+# +#+        
                      #+#     #+#       #+# #+#     #+# #+#    #+#    #+#     #+#   #+#+# #+#        
                  ########### ###       ### ###     ###  ######## ########### ###    #### ##########   
                                                



                                         Another Fine Release Brought to you from -Imagine                   
            
    
********************************************************************************************************************                                
                                               WHITEOUT.TS.XVID-IMAGINE
********************************************************************************************************************

                              Ripper ...........: Imagine         Video Codec ......: XviD
                              Release Date .....: 29/9/2009       Video Bitrate ....: 1446 kbps
                              Theater Date .....: 11/9/2009       Resolution .......: 720 x 352
                              Audio Codec ......: MP3             Audio Bitrate ....: 128kbps
                              IMDb URL..........: http://www.imdb.com/title/tt0365929/
                              IMDB Rating ......: 5.6/10   1,124 votes 



[color=yellow]DETAILS[/color]

Video
ID                               : 0
Format                           : MPEG-4 Visual
Format profile                   : AdvancedSimple@L5
Format settings, BVOP            : Yes
Format settings, QPel            : No
Format settings, GMC             : No warppoints
Format settings, Matrix          : Custom
Codec ID                         : XVID
Codec ID/Hint                    : XviD
Duration                         : 1h 32mn
Bit rate                         : 1 340 Kbps
Width                            : 720 pixels
Height                           : 352 pixels
Display aspect ratio             : 2.045
Frame rate                       : 25.000 fps
Resolution                       : 24 bits
Colorimetry                      : 4:2:0
Scan type                        : Progressive
Bits/(Pixel*Frame)               : 0.212
Stream size                      : 888 MiB (90%)
Writing library                  : XviD 1.2.1 (UTC 2008-12-04)

Audio
ID                               : 1
Format                           : MPEG Audio
Format version                   : Version 1
Format profile                   : Layer 3
Codec ID                         : 55
Codec ID/Hint                    : MP3
Duration                         : 1h 32mn
Bit rate mode                    : Constant
Bit rate                         : 128 Kbps
Channel(s)                       : 2 channels
Sampling rate                    : 44.1 KHz
Resolution                       : 16 bits
Stream size                      : 84.8 MiB (9%)
Alignment                        : Aligned on interleaves
Interleave, duration             : 40 ms (1.00 video frame)
Interleave, preload duration     : 391 ms



[color=yellow]NOTES:[/color]



IMAGiNE bringing you many new releases.......

The audio and video have both been filtered to improve the quality.

Its not the greatest video , but its the best available. The audio is decent and hopefully we

will have a steady supply of line sound.







[color=yellow]GREETS:[/color]



FLAWL3SS,ViSiON,DEViSE,FUSiON,STG,SecretMyth,Lynks

And to all the other p2p grps past and present





[color=red]Have anything to offer????......Contact us imaginegroup@hushmail.com[/color]


[img]http://lookpic.com/i/87/fSBwz025.png[/img]
[img]http://lookpic.com/i/769/ZvB6wRJn.png[/img]
[img]http://lookpic.com/i/999/L7wRceiy.png[/img]
[img]http://lookpic.com/i/465/8qxrGzDs.png[/img]
